<svg width="1155" height="246" viewBox="0 0 1155 246" fill="none" xmlns="http://www.w3.org/2000/svg">
<path fill-rule="evenodd" clip-rule="evenodd" d="M313.436 210.85L324.305 159.758C330.275 160.457 338.052 161.11 348.876 161.11C374.164 161.11 394.804 154.205 409.145 141.97C423.506 129.715 431.451 112.194 431.451 91.1982C431.451 76.957 427.649 64.9827 420.492 55.6606C413.334 46.3385 402.885 39.7536 389.737 36.1803C382.089 34.0964 373.525 33.025 364.147 33.025C354.214 33.025 334.774 35.6903 323.053 37.6697L322.298 37.7938L285.399 210.856H313.43L313.436 210.85ZM347.663 135.333C343.855 135.333 340.466 135.274 337.349 135.13C334.599 134.999 332.063 134.803 329.63 134.516L345.442 60.3902C350.49 59.6716 357.583 58.7963 364.876 58.7963C369.375 58.7963 373.479 59.1621 377.191 59.8676C384.335 61.2264 390.015 63.846 394.268 67.5173C400.697 73.0701 403.995 81.1706 403.995 91.4399C403.995 104.603 399.27 115.519 389.957 123.169C380.618 130.845 366.535 135.333 347.663 135.333Z" fill="black"/>
<path d="M560.218 210.85L597.465 36.1345H569.422L532.181 210.85H560.224H560.218Z" fill="black"/>
<path fill-rule="evenodd" clip-rule="evenodd" d="M914.223 99.2267L927.789 36.1345H955.859L931.262 150.671C929.074 160.705 927.163 172.098 927.163 178.814C927.163 181.564 927.525 183.668 928.248 185.046C928.596 185.719 929.022 186.189 929.506 186.496C929.984 186.803 930.591 186.986 931.378 186.986C932.398 186.986 933.663 186.516 935.154 185.516C936.632 184.53 938.226 183.093 939.878 181.335C943.112 177.899 946.461 173.339 949.437 168.799C949.417 168.231 949.411 167.656 949.411 167.068C949.411 148.333 956.104 129.107 967.721 114.552C979.345 99.991 995.945 90.0484 1015.75 90.0484C1029.47 90.0484 1040.45 94.8629 1047.99 103.114C1055.52 111.351 1059.54 122.908 1059.54 136.228C1059.54 168.048 1040.45 201.24 1010.62 210.791C1005.15 212.542 999.269 213.496 993.202 213.496C987.135 213.496 981.604 212.555 976.66 210.778C968.121 207.727 961.39 202.207 956.756 194.891C951.018 202.148 944.615 207.682 937.464 210.752C933.334 212.535 928.893 213.496 924.349 213.496C919.806 213.496 915.765 212.561 912.332 210.713C905.058 206.787 900.837 198.902 900.262 187.829C893.866 198.333 885.231 206.695 874.181 210.778C869.431 212.529 864.267 213.483 858.652 213.483C853.399 213.483 848.584 212.529 844.266 210.758C835.224 207.061 828.466 199.862 824.51 190.697C818.488 200.652 811.931 207.309 804.541 210.739C800.578 212.581 796.318 213.483 791.994 213.483C787.669 213.483 783.829 212.522 780.589 210.7C773.657 206.8 769.675 199.156 768.933 189.364C762.969 199 754.985 206.845 744.562 210.771C739.915 212.522 734.81 213.483 729.207 213.483C723.98 213.483 719.126 212.542 714.75 210.765C709.303 208.557 705.037 204.938 701.764 200.424C695.943 206.218 689.127 210.445 681.827 212.712C673.695 215.233 664.769 215.325 656.43 211.876C647.982 208.374 641.263 201.698 636.984 192.728C634.796 188.136 632.589 182.681 630.465 177.422C629.871 175.946 629.278 174.483 628.697 173.059C627.406 169.91 626.115 166.826 624.779 163.854C621.758 164.481 618.854 164.906 616.111 165.154L606.346 210.967H577.405L614.84 35.3636H643.787L623.023 132.746C637.629 128.493 657.766 116.46 671.604 86.7494L699.008 99.8277C686.223 127.284 668.525 144.119 651.189 153.853C652.442 156.694 653.603 159.49 654.694 162.156C655.417 163.926 656.101 165.611 656.753 167.225C658.805 172.294 660.548 176.619 662.329 180.342C663.904 183.641 665.724 184.948 667.093 185.51C668.577 186.124 670.746 186.359 673.592 185.477C679.33 183.694 686.9 177.403 690.644 165.344L693.387 153.186C694.458 145.184 696.478 137.9 699.041 132.537C711.297 106.889 735.784 89.5519 762.898 89.5519C771.721 89.5519 780.938 91.688 788.992 94.9152C797.041 98.1423 804.031 102.5 808.355 107.02L808.781 107.464L808.645 108.065C807.787 111.867 806.709 116.506 805.528 121.594C803.611 129.839 801.423 139.272 799.435 148.293C797.835 155.584 796.376 162.58 795.311 168.42C794.246 174.293 793.607 178.912 793.607 181.492C793.607 183.439 794.007 184.83 794.614 185.706C795.182 186.529 795.989 186.967 797.086 186.967C798.635 186.967 800.468 186.111 802.585 184.131C804.689 182.165 806.954 179.206 809.355 175.293C814.151 167.467 819.385 156.002 824.936 141.519C835.166 110.45 861.434 90.0418 887.761 90.0418C899.843 90.0418 908.259 93.6609 914.249 99.2136L914.223 99.2267ZM772.947 140.624L778.078 118.91C773.296 116.055 767.868 114.121 760.943 114.121C748.899 114.121 738.295 120.85 730.66 130.877C723.018 140.905 718.442 154.127 718.442 166.84C718.442 173.281 719.978 178.507 722.773 182.1C725.542 185.66 729.627 187.724 735.01 187.724C743.078 187.724 750.784 183.602 757.386 175.619C763.995 167.623 769.456 155.812 772.947 140.631V140.624ZM907.969 127.676L909.285 121.281C904.425 117.479 897.81 114.618 889.193 114.618C877.647 114.618 867.462 121.157 860.124 131.021C852.786 140.892 848.377 153.99 848.377 166.84C848.377 173.535 849.92 178.762 852.624 182.296C855.303 185.791 859.207 187.731 864.222 187.731C873.413 187.731 882.391 181.812 890.103 171.216C897.803 160.64 904.116 145.569 907.969 127.683V127.676ZM981.779 181.401C984.754 185.281 989.375 187.718 996.1 187.718C1005.77 187.718 1014.62 181.316 1021.12 171.752C1027.6 162.208 1031.59 149.704 1031.59 137.952C1031.59 131.616 1030.16 126.082 1027.15 122.156C1024.18 118.276 1019.56 115.833 1012.83 115.833C1003.17 115.833 994.319 122.293 987.82 131.89C981.34 141.467 977.351 153.977 977.351 165.611C977.351 171.948 978.777 177.475 981.779 181.401Z" fill="black"/>
<path d="M1154.78 177.958L1154.14 178.912C1148.99 186.516 1142.01 194.995 1137.24 199.248C1133.34 202.736 1128.88 205.977 1123.94 208.485C1117.99 211.529 1111.36 213.489 1104.25 213.489C1098.22 213.489 1093 212.405 1088.61 210.393C1076.67 204.938 1071.13 192.82 1071.13 178.082C1071.13 172.249 1071.79 166.565 1072.53 162.103V162.064L1072.55 161.966C1072.81 160.405 1073.08 158.987 1073.34 157.772L1082.01 117.054H1062.83L1068.06 92.5046H1087.11L1097.28 45.339H1125.33L1115.11 92.5046H1149.09L1143.86 117.054H1109.78L1101 158.733C1100.98 158.824 1100.96 158.909 1100.95 158.994V159.026L1100.94 159.04C1100.92 159.138 1100.9 159.229 1100.88 159.327H1100.88L1100.86 159.418C1099.72 165.278 1098.83 170.55 1098.83 174.901C1098.83 178.931 1099.66 182.034 1101.11 184.092C1102.53 186.104 1104.6 187.228 1107.41 187.228C1110.62 187.228 1113.54 186.065 1116.81 183.707C1120.11 181.329 1123.67 177.795 1128.17 173.143C1128.52 172.745 1130.71 170.047 1133.1 167.12L1135.01 164.769L1154.78 177.958Z" fill="black"/>
<path fill-rule="evenodd" clip-rule="evenodd" d="M489.461 90.0549C469.666 90.0549 453.059 99.9911 441.435 114.559C429.818 129.114 423.125 148.333 423.125 167.075C423.125 188.038 432.897 204.539 450.394 210.791C455.331 212.561 460.856 213.496 466.916 213.496C472.977 213.496 478.837 212.548 484.298 210.804C514.154 201.273 533.259 168.068 533.259 136.234C533.259 122.914 529.244 111.358 521.712 103.12C514.167 94.876 503.189 90.0549 489.461 90.0549ZM469.827 187.718C463.102 187.718 458.481 185.275 455.505 181.401C452.498 177.475 451.078 171.948 451.078 165.611C451.078 153.977 455.067 141.473 461.547 131.89C468.046 122.293 476.895 115.833 486.556 115.833C493.288 115.833 497.909 118.276 500.878 122.156C503.886 126.082 505.306 131.616 505.306 137.952C505.306 149.704 501.317 162.208 494.837 171.752C488.344 181.316 479.489 187.718 469.827 187.718Z" fill="black"/>
<path d="M126.633 52.1134C150.737 52.1134 170.276 40.6045 170.276 26.4075C170.276 12.2105 150.737 0.701538 126.633 0.701538C102.53 0.701538 82.9903 12.2105 82.9903 26.4075C82.9903 40.6045 102.53 52.1134 126.633 52.1134Z" fill="#FF2670"/>
<path d="M126.633 245.702C150.737 245.702 170.276 234.193 170.276 219.996C170.276 205.799 150.737 194.29 126.633 194.29C102.53 194.29 82.9903 205.799 82.9903 219.996C82.9903 234.193 102.53 245.702 126.633 245.702Z" fill="#FF2670"/>
<path d="M65.8046 87.6547C77.8563 66.5267 77.7813 43.6461 65.6372 36.5494C53.493 29.4528 33.8783 40.8273 21.8266 61.9553C9.7749 83.0832 9.84987 105.964 21.9941 113.061C34.1382 120.157 53.7529 108.783 65.8046 87.6547Z" fill="#FF2670"/>
<path d="M231.458 184.449C243.51 163.321 243.432 140.439 231.285 133.34C219.138 126.242 199.521 137.615 187.469 158.743C175.417 179.871 175.495 202.753 187.642 209.851C199.789 216.95 219.406 205.577 231.458 184.449Z" fill="#FF2670"/>
<path d="M65.6377 209.858C77.7849 202.759 77.8624 179.877 65.8107 158.749C53.759 137.621 34.1418 126.248 21.9946 133.347C9.8473 140.445 9.76983 163.327 21.8215 184.455C33.8732 205.583 53.4904 216.956 65.6377 209.858Z" fill="#FF2670"/>
<path d="M231.281 113.056C243.428 105.957 243.506 83.0751 231.454 61.9472C219.402 40.8192 199.785 29.4461 187.638 36.5446C175.491 43.6431 175.413 66.5252 187.465 87.6531C199.517 108.781 219.134 120.154 231.281 113.056Z" fill="#FF2670"/>
</svg>
